<svg xmlns="http://www.w3.org/2000/svg" viewBox="0 0 214.95 248.48"><defs><style>.cls-1{fill:#5f646b;}.cls-2{fill:#373a3a;}.cls-3{fill:#dae0e5;}.cls-4{fill:#fff;}.cls-5{fill:#f6d84c;}.cls-6{fill:none;stroke:#373a3a;stroke-linecap:round;stroke-linejoin:round;stroke-width:3px;}.cls-7{fill:#969a9e;}</style></defs><g id="Layer_2" data-name="Layer 2"><g id="icons_design" data-name="icons design"><g id="eye"><path class="cls-1" d="M213.45,107.57l-32.71,18.89c-.89-2.76-1.87-5.47-2.88-8.17-14.55-38.6-39.1-72.58-66.94-88.67-13.51-7.78-26.22-10.49-37.41-8.7a40,40,0,0,0-13.16,4.54h0L92.45,6.91A40.13,40.13,0,0,1,106.22,2c11.21-1.79,23.89.92,37.41,8.7C171.48,26.82,196,60.8,210.57,99.4,211.59,102.1,212.56,104.81,213.45,107.57Z"/><path class="cls-2" d="M180.74,126.46l32.71-18.89a56.93,56.93,0,0,1-7.13,10.37l-.48.54a44.73,44.73,0,0,1-11,9l-32,18.49a45,45,0,0,0,10.32-8.64l.47-.55A56.88,56.88,0,0,0,180.74,126.46Z"/><path class="cls-3" d="M177.86,118.29c1,2.7,2,5.41,2.88,8.17a56.88,56.88,0,0,1-7.14,10.36l-.47.55A45,45,0,0,1,162.81,146l-.69.4c-13.94,8.05-31.78,7.41-51.2-3.82-29.79-17.2-55.81-54.9-69.82-96.77a56.18,56.18,0,0,1,7.62-11l.42-.46a44.23,44.23,0,0,1,11.21-8.94,40,40,0,0,1,13.16-4.54c11.19-1.79,23.9.92,37.41,8.7C138.76,45.71,163.31,79.69,177.86,118.29Zm-35.55-14c0-20-14.06-44.36-31.4-54.36S79.54,48,79.54,68s14,44.32,31.37,54.33S142.31,124.26,142.31,104.25Z"/><path class="cls-4" d="M110.91,49.89c17.34,10,31.4,34.32,31.4,54.36s-14.06,28.1-31.4,18.09S79.54,88,79.54,68,93.57,39.87,110.91,49.89ZM123.06,93.1c0-7.73-5.45-17.13-12.14-21s-12.17-.73-12.17,7,5.45,17.18,12.17,21.06S123.06,100.88,123.06,93.1Z"/><path class="cls-5" d="M110.92,72.09c6.69,3.88,12.14,13.28,12.14,21s-5.45,10.92-12.14,7.06S98.75,86.85,98.75,79.1,104.2,68.22,110.92,72.09Z"/><path class="cls-6" d="M162.12,146.41c-13.94,8.05-31.78,7.41-51.2-3.82-29.79-17.2-55.81-54.9-69.82-96.77a56.18,56.18,0,0,1,7.62-11l.42-.46a44.23,44.23,0,0,1,11.21-8.94,40,40,0,0,1,13.16-4.54c11.19-1.79,23.9.92,37.41,8.7,27.84,16.09,52.39,50.07,66.94,88.67,1,2.7,2,5.41,2.88,8.17a56.88,56.88,0,0,1-7.14,10.36l-.47.55A45,45,0,0,1,162.81,146"/><path class="cls-6" d="M142.31,104.25c0-20-14.06-44.36-31.4-54.36S79.54,48,79.54,68s14,44.32,31.37,54.33S142.31,124.26,142.31,104.25Z"/><path class="cls-6" d="M123.06,93.1c0-7.73-5.45-17.13-12.14-21s-12.17-.73-12.17,7,5.45,17.18,12.17,21.06S123.06,100.88,123.06,93.1Z"/><path class="cls-6" d="M59.73,25.8,92.45,6.91A40.13,40.13,0,0,1,106.22,2c11.21-1.79,23.89.92,37.41,8.7C171.48,26.82,196,60.8,210.57,99.4c1,2.7,2,5.41,2.88,8.17a56.93,56.93,0,0,1-7.13,10.37l-.48.54a44.73,44.73,0,0,1-11,9l-32.73,18.89"/><line class="cls-6" x1="180.74" y1="126.46" x2="213.45" y2="107.57"/></g><path class="cls-3" d="M194.3,223.51a13.25,13.25,0,1,1-17.63,19.77L117.22,186.1a10.92,10.92,0,0,1,16.3-12.91l.12-.16Z"/><path class="cls-2" d="M133.64,173l-.12.16a10.92,10.92,0,0,0-16.3,12.91l-4.73-4.54a11.64,11.64,0,0,1-1.06-1.18,10,10,0,0,1-1.56-9.1,9.88,9.88,0,0,1,2.83-4.41,10,10,0,0,1,10.41-1.93,9.71,9.71,0,0,1,2.8,1.64Z"/><path class="cls-7" d="M126.24,145.7c0,1.24,0,2.46-.1,3.63a51.65,51.65,0,0,1-3,15.61,10,10,0,0,0-10.41,1.93,9.88,9.88,0,0,0-2.83,4.41,10.08,10.08,0,0,0,1.56,9.1l-.91.36-15.67,9c6.15-3.82,10.76-10.28,13.2-19a58.61,58.61,0,0,0,2-15.68c0-34.59-24.29-76.68-54.26-94C41.08,52.62,27.75,51.65,18,57l15.65-9C43.43,42.26,57,43.07,72,51.73A93.6,93.6,0,0,1,93.25,69,130.36,130.36,0,0,1,117,105.43C122.84,118.78,126.24,132.76,126.24,145.7Z"/><path class="cls-4" d="M33.72,68.66C21.29,70.21,13,81,13,99c0,27.31,19.18,60.51,42.81,74.16,15.59,9,29.08,7.14,36.7-2.8.2-.26.39-.52.58-.8,3.47-5.17,5.53-12.27,5.53-21.12,0-27.3-19.17-60.49-42.81-74.16-7.67-4.41-14.86-6.19-21.08-5.74ZM110,155.07a58.61,58.61,0,0,1-2,15.68c-2.44,8.74-7,15.2-13.2,19l-.73.42c-9.81,5.68-23.37,4.85-38.36-3.79-24.49-14.14-45.2-44.83-51.94-74.47A88.89,88.89,0,0,1,1.5,92.41C1.5,75.11,7.58,63,17.4,57.29L18,57c9.78-5.31,23.11-4.34,37.79,4.13C85.73,78.39,110,120.48,110,155.07Z"/><path class="cls-1" d="M70.46,164.69c8.05,4.65,15.57,6.44,22,5.69-7.46,10.06-21.11,11.81-36.7,2.8C32.13,159.53,13,126.33,13,99c0-18,8.32-28.92,20.77-30.36-3.85,5.2-6.07,12.6-6.07,21.87C27.65,117.84,46.82,151,70.46,164.69Z"/><path class="cls-6" d="M94.12,190.19c-9.81,5.68-23.37,4.85-38.36-3.79-24.49-14.14-45.2-44.83-51.94-74.47A88.89,88.89,0,0,1,1.5,92.41C1.5,75.11,7.58,63,17.4,57.29"/><path class="cls-6" d="M18,57c9.78-5.31,23.11-4.34,37.79,4.13,30,17.3,54.26,59.39,54.26,94a58.61,58.61,0,0,1-2,15.68c-2.44,8.74-7,15.2-13.2,19"/><path class="cls-6" d="M92.47,170.38h0c-6.43.75-13.95-1-22-5.69C46.82,151,27.65,117.84,27.65,90.53c0-9.27,2.22-16.67,6.07-21.87h0"/><path class="cls-6" d="M33.72,68.66l1-.1c6.22-.45,13.41,1.33,21.08,5.74C79.4,88,98.57,121.16,98.57,148.46c0,8.85-2.06,15.95-5.53,21.12-.19.28-.38.54-.58.8-7.62,9.94-21.11,11.81-36.7,2.8C32.13,159.53,13,126.33,13,99,13,81,21.29,70.21,33.72,68.66Z"/><path class="cls-6" d="M17.4,57.29l16.22-9.36C43.43,42.26,57,43.07,72,51.73A93.6,93.6,0,0,1,93.25,69,130.36,130.36,0,0,1,117,105.43c5.82,13.35,9.22,27.33,9.22,40.27,0,1.24,0,2.46-.1,3.63a51.65,51.65,0,0,1-3,15.61"/><path class="cls-6" d="M110.52,180.74l-16.4,9.45"/><path class="cls-6" d="M117.22,186.1l59.45,57.18a13.25,13.25,0,1,0,17.63-19.77l-68.39-56.93a9.71,9.71,0,0,0-2.8-1.64,10,10,0,0,0-10.41,1.93,9.88,9.88,0,0,0-2.83,4.41,10,10,0,0,0,1.56,9.1,11.64,11.64,0,0,0,1.06,1.18Z"/><path class="cls-6" d="M133.52,173.19a10.92,10.92,0,0,0-16.3,12.91"/></g></g></svg>