<?xml version="1.0" encoding="UTF-8"?>
<svg id="Layer_2" xmlns="http://www.w3.org/2000/svg" viewBox="0 0 111.52 236.43">
  <defs>
    <style>
      .cls-1 {
        fill: #c2c7cc;
      }

      .cls-2 {
        fill: #fff;
      }

      .cls-3 {
        fill: #373a3a;
      }

      .cls-4 {
        fill: none;
        stroke: #373a3a;
        stroke-linecap: round;
        stroke-linejoin: round;
        stroke-width: 3px;
      }

      .cls-5 {
        fill: #dae0e5;
      }

      .cls-6 {
        fill: #5f646b;
      }
    </style>
  </defs>
  <g id="icons_design">
    <g>
      <g>
        <path class="cls-2" d="M110.02,61.57v156.98c0,3.05-1.08,5.25-2.85,6.27l-16.26,9.39c1.67-1.04,2.68-3.19,2.68-6.18V71.05c0-.73-.06-1.47-.18-2.24-.81-5.29-4.33-11.09-8.72-14.02C59.96,38.34,35.12,24,10.39,11.9c-2.2-1.08-4.2-1.19-5.73-.45-.06.03-.12.06-.17.09L20.76,2.14c1.57-.9,3.68-.88,6.05.28,24.73,12.1,49.57,26.44,74.31,42.89,5.02,3.35,8.9,10.43,8.9,16.26Z"/>
        <path class="cls-6" d="M93.59,217.73v10.3c0,2.99-1.02,5.13-2.69,6.17-1.59.99-3.76,1-6.21-.19-24.73-12.11-49.57-26.45-74.31-42.89-5.02-3.35-8.89-10.45-8.89-16.26v-10.3l92.09,53.17Z"/>
        <path class="cls-5" d="M93.59,71.05v146.68L1.5,164.56V17.88c0-.73.07-1.4.19-2.03.38-2,1.32-3.45,2.65-4.23.05-.03.1-.07.16-.09.05-.03.11-.06.17-.09,1.52-.74,3.53-.63,5.73.45,24.73,12.1,49.57,26.44,74.31,42.89,4.39,2.93,7.91,8.72,8.72,14.02.12.77.18,1.51.18,2.24ZM76.94,183.37v-14.39l-12.45-7.19v14.39l12.45,7.19ZM73.4,121.56c0-4.15-.75-8.52-2.09-12.87-2.13-6.91-5.78-13.75-10.34-19.52-3.79-4.78-8.2-8.82-12.93-11.55-7.07-4.09-13.48-4.44-18.07-1.7-4.51,2.68-7.3,8.34-7.3,16.34,0,16.18,11.35,35.84,25.37,43.94,14.01,8.08,25.36,1.53,25.36-14.65ZM54.27,170.28v-14.38l-12.45-7.19v14.38l12.45,7.19ZM31.6,157.19v-14.38l-12.46-7.19v14.38l12.46,7.19Z"/>
        <polygon class="cls-2" points="76.94 168.98 76.94 183.37 64.48 176.18 64.48 161.79 76.94 168.98"/>
        <path class="cls-2" d="M71.31,108.69c1.35,4.35,2.09,8.72,2.09,12.87,0,16.18-11.35,22.73-25.36,14.65-14.02-8.09-25.37-27.76-25.37-43.94,0-8.01,2.79-13.66,7.3-16.34l18.07,30.99,23.27,1.78Z"/>
        <path class="cls-3" d="M71.31,108.69l-23.27-1.78,12.93-17.74c4.57,5.77,8.21,12.61,10.34,19.52Z"/>
        <path class="cls-1" d="M60.96,89.18l-12.93,17.74-18.07-30.99c4.6-2.74,11-2.39,18.07,1.7,4.72,2.73,9.13,6.77,12.93,11.55Z"/>
        <polygon class="cls-2" points="54.27 155.9 54.27 170.28 41.81 163.09 41.81 148.71 54.27 155.9"/>
        <polygon class="cls-2" points="31.6 142.81 31.6 157.19 19.13 150 19.13 135.62 31.6 142.81"/>
      </g>
      <g>
        <path class="cls-4" d="M1.5,164.56v10.3c0,5.81,3.87,12.91,8.89,16.26,24.73,16.44,49.57,30.78,74.31,42.89,2.45,1.19,4.62,1.18,6.21.19,1.67-1.04,2.69-3.18,2.69-6.17V71.05c0-.73-.06-1.47-.18-2.24-.81-5.29-4.33-11.09-8.72-14.02C59.96,38.34,35.12,24,10.39,11.9c-2.2-1.08-4.2-1.19-5.73-.45-.06.03-.12.06-.17.09-.06.02-.11.06-.16.09-1.33.78-2.27,2.23-2.65,4.23-.12.63-.19,1.31-.19,2.03v146.68Z"/>
        <line class="cls-4" x1="93.59" y1="217.73" x2="1.5" y2="164.56"/>
        <path class="cls-4" d="M4.34,11.62L20.76,2.14c1.57-.9,3.68-.88,6.05.28,24.73,12.1,49.57,26.44,74.31,42.89,5.02,3.35,8.9,10.43,8.9,16.26v156.98c0,3.05-1.08,5.25-2.85,6.27l-16.41,9.48"/>
        <path class="cls-4" d="M71.31,108.69c1.34,4.35,2.09,8.72,2.09,12.87,0,16.18-11.35,22.73-25.36,14.65-14.02-8.09-25.37-27.76-25.37-43.94,0-8.01,2.79-13.66,7.3-16.34,4.6-2.74,11-2.39,18.07,1.7,4.72,2.73,9.14,6.77,12.93,11.55,4.57,5.77,8.21,12.61,10.34,19.52Z"/>
        <polyline class="cls-4" points="29.97 75.92 48.04 106.91 60.96 89.18"/>
        <line class="cls-4" x1="48.04" y1="106.91" x2="71.31" y2="108.69"/>
        <polygon class="cls-4" points="31.6 157.19 19.13 150 19.13 135.62 31.6 142.81 31.6 157.19"/>
        <polygon class="cls-4" points="54.27 170.28 41.81 163.09 41.81 148.71 54.27 155.9 54.27 170.28"/>
        <polygon class="cls-4" points="76.94 183.37 64.48 176.18 64.48 161.79 76.94 168.98 76.94 183.37"/>
        <line class="cls-4" x1="18.64" y1="53.24" x2="29.97" y2="59.78"/>
        <line class="cls-4" x1="18.64" y1="46.98" x2="29.97" y2="53.52"/>
        <line class="cls-4" x1="18.64" y1="40.73" x2="29.97" y2="47.26"/>
      </g>
    </g>
  </g>
</svg>