<?xml version="1.0" encoding="UTF-8"?>
<svg id="Layer_2" data-name="Layer 2" xmlns="http://www.w3.org/2000/svg" viewBox="0 0 178.28 184.67">
  <defs>
    <style>
      .cls-1 {
        fill: #f6d84c;
      }

      .cls-2 {
        fill: #c2c7cc;
      }

      .cls-3 {
        fill: #969a9e;
      }

      .cls-4 {
        fill: #fff;
      }

      .cls-5 {
        fill: #373a3a;
      }

      .cls-6 {
        stroke-width: 2.5px;
      }

      .cls-6, .cls-7 {
        fill: none;
        stroke: #373a3a;
        stroke-linecap: round;
        stroke-linejoin: round;
      }

      .cls-7 {
        stroke-width: 1.5px;
      }

      .cls-8 {
        fill: #5f646b;
      }
    </style>
  </defs>
  <g id="icons">
    <g>
      <g>
        <g>
          <path class="cls-4" d="M152.93,58.62v91.84c0,1.93-.66,3.45-1.75,4.34l-8.45,7.1c.98-.92,1.57-2.36,1.57-4.2v-91.84c0-4.03-2.87-8.32-6.42-9.61L7.69,8.86c-1.84-.66-3.5-.39-4.68.6h-.01S11.65,2.21,11.65,2.21c1.16-.99,2.83-1.26,4.68-.59l130.19,47.39c3.55,1.3,6.42,5.59,6.42,9.61Z"/>
          <path class="cls-2" d="M144.29,65.86v91.84c0,1.84-.59,3.28-1.57,4.2l-.18.16c-1.15.97-2.82,1.25-4.67.58l-15.26-5.54h0S7.69,115.25,7.69,115.25c-3.57-1.29-6.44-5.59-6.44-9.6V13.8c0-1.93.66-3.44,1.76-4.34,1.17-.99,2.84-1.27,4.68-.6l130.19,47.39c3.55,1.3,6.42,5.58,6.42,9.61ZM136.87,154.77V63.4L8.67,16.72v91.39l128.2,46.66Z"/>
          <path class="cls-4" d="M136.87,63.4v91.37L8.67,108.11V16.72l128.2,46.68ZM107.4,114.76v-.37c0-14.72-7.83-30.44-19.5-41.67-5.88-5.66-12.75-10.17-20.08-12.86-7.23-2.63-13.99-3.13-19.83-1.83-11.81,2.63-19.76,12.7-19.76,27.53v.37l14.63,5.33c0-.13-.01-.25-.01-.38,0-9.35,5-15.68,12.45-17.35,3.68-.83,7.96-.51,12.52,1.15,4.68,1.7,9.03,4.58,12.77,8.2,2.35,2.28,4.46,4.85,6.24,7.6l-19.3,3.43c-2.37-1.09-4.76-.8-6.03.95-1.73,2.41-.71,6.67,2.29,9.52,3.01,2.85,6.85,3.22,8.58.8.44-.61.7-1.33.79-2.13h.01l14.63-10.99c3.13,5.37,4.99,11.3,4.99,16.99v.38l14.62,5.32Z"/>
          <path class="cls-3" d="M122.61,157.1c1.19,2.75.25,5.9-3.01,8.58l-14.52,11.95c-6.43,5.3-18.26,7.29-27.27,4.57-7.17-2.18-13.48-4.41-19.62-6.86-6.32-2.29-12.35-4.77-18.58-7.7-7.84-3.69-8.88-10.58-2.45-15.88l14.51-11.96c2.49-2.07,5.91-3.5,9.64-4.23v20.84l29.68,10.79,10.36-8.69v-9.15l21.26,7.74h0Z"/>
          <path class="cls-1" d="M107.4,114.39v.37l-14.62-5.32v-.38c0-5.69-1.86-11.62-4.99-16.99l3.04-2.29-4.01.71c-1.77-2.74-3.88-5.32-6.24-7.6l7.31-10.16c11.67,11.23,19.5,26.95,19.5,41.67Z"/>
          <polygon class="cls-8" points="101.36 149.36 101.36 158.51 90.99 167.19 90.99 145.59 101.36 149.36"/>
          <path class="cls-2" d="M90.99,145.59v21.6l-29.68-10.79v-20.84c.49-.11.95-.2,1.45-.26l28.23,10.29Z"/>
          <path class="cls-4" d="M90.83,89.78l-3.04,2.29c-.32-.54-.63-1.07-.97-1.58l4.01-.71Z"/>
          <path class="cls-4" d="M87.9,72.72l-7.31,10.16c-3.74-3.62-8.1-6.5-12.77-8.2-4.56-1.66-8.83-1.98-12.52-1.15l-7.31-15.49c5.84-1.31,12.6-.8,19.83,1.83,7.34,2.68,14.21,7.2,20.08,12.86Z"/>
          <path class="cls-5" d="M87.79,92.07l-14.63,10.99c.28-2.34-.85-5.26-3.09-7.39-.81-.77-1.68-1.36-2.55-1.75l19.3-3.43c.34.52.65,1.04.97,1.58Z"/>
          <path class="cls-8" d="M67.52,93.91c.87.39,1.74.98,2.55,1.75,2.24,2.13,3.38,5.04,3.09,7.39h-.01c-.09.8-.36,1.52-.79,2.13-1.73,2.42-5.57,2.05-8.58-.8-3-2.85-4.02-7.11-2.29-9.52,1.27-1.75,3.65-2.03,6.03-.95Z"/>
          <path class="cls-4" d="M61.31,134.79l1.45.51c-.5.06-.96.16-1.45.26v-.77Z"/>
          <path class="cls-8" d="M47.98,58.04l7.31,15.49c-7.45,1.67-12.45,8-12.45,17.35,0,.13.01.25.01.38l-14.63-5.33v-.37c0-14.83,7.95-24.9,19.76-27.53Z"/>
        </g>
        <g>
          <path class="cls-6" d="M62.76,135.3L7.69,115.25c-3.57-1.29-6.44-5.59-6.44-9.6V13.8c0-1.93.67-3.43,1.76-4.34,1.18-.98,2.84-1.27,4.68-.6l130.19,47.39c3.55,1.3,6.42,5.58,6.42,9.61v91.84c0,1.84-.59,3.28-1.57,4.2"/>
          <line class="cls-6" x1="122.61" y1="157.09" x2="62.76" y2="135.3"/>
          <path class="cls-6" d="M142.54,162.06c-1.15.97-2.82,1.25-4.67.58l-15.26-5.54"/>
          <polygon class="cls-7" points="8.67 108.11 8.67 16.72 136.87 63.4 136.87 154.77 8.67 108.11"/>
          <polyline class="cls-6" points="90.99 145.59 90.99 167.19 61.31 156.41 61.31 134.79"/>
          <path class="cls-6" d="M142.54,162.06l8.63-7.26c1.09-.89,1.75-2.41,1.75-4.34V58.62c0-4.02-2.87-8.32-6.42-9.61L16.32,1.62c-1.85-.66-3.51-.4-4.68.59L3,9.45"/>
          <path class="cls-6" d="M122.61,157.09h0c1.19,2.77.25,5.91-3.01,8.59l-14.52,11.95c-6.43,5.3-18.26,7.29-27.27,4.57-7.17-2.18-13.48-4.41-19.62-6.86-6.32-2.29-12.35-4.77-18.58-7.7-7.84-3.69-8.88-10.58-2.45-15.88l14.51-11.96c2.49-2.07,5.92-3.46,9.64-4.23.49-.1.95-.2,1.45-.26"/>
          <polyline class="cls-6" points="90.99 167.19 101.36 158.51 101.36 149.36"/>
          <path class="cls-6" d="M47.98,58.04c-11.81,2.64-19.76,12.7-19.76,27.53v.37l14.63,5.33c0-.13-.01-.25-.01-.38,0-9.35,5-15.67,12.45-17.35,3.68-.83,7.96-.51,12.52,1.15,4.68,1.7,9.03,4.58,12.77,8.2,2.35,2.28,4.46,4.86,6.24,7.6.34.52.66,1.04.97,1.58,3.14,5.37,4.99,11.3,4.99,16.99v.38l14.62,5.32v-.37c0-14.72-7.83-30.44-19.5-41.67-5.88-5.66-12.75-10.17-20.08-12.86-7.23-2.63-13.99-3.13-19.83-1.83Z"/>
          <line class="cls-6" x1="47.98" y1="58.04" x2="55.3" y2="73.53"/>
          <line class="cls-6" x1="80.59" y1="82.88" x2="87.9" y2="72.72"/>
          <path class="cls-6" d="M73.17,103.05c.28-2.34-.85-5.26-3.09-7.39-.81-.77-1.68-1.36-2.55-1.75-2.38-1.08-4.76-.8-6.03.95-1.73,2.41-.71,6.67,2.29,9.52,3.01,2.85,6.85,3.22,8.58.8.44-.61.7-1.33.79-2.13h.01Z"/>
          <polyline class="cls-6" points="67.51 93.91 67.52 93.91 90.83 89.78 73.17 103.05 73.16 103.05"/>
        </g>
      </g>
      <g>
        <g>
          <g>
            <path class="cls-3" d="M177.03,62.7v6.92c0,6.01-2.78,10.73-6.96,14.23l-9.01,7.57c4.18-3.52,6.96-8.23,6.96-14.24v-29.88c-13.33-5.85-22.9-13.38-32.09-24.5l9.01-7.56c9.19,11.11,18.76,18.65,32.1,24.49v22.97Z"/>
            <path class="cls-4" d="M168.01,70.27v6.91c0,6.01-2.77,10.73-6.96,14.24-6.64,5.57-16.84,8.12-25.13,8.04-13.52-9.71-32.1-30.08-32.1-45.64v-29.89c13.33,3.87,22.9,3.29,32.1-1.13,9.19,11.11,18.76,18.65,32.09,24.5v22.97Z"/>
            <path class="cls-2" d="M144.93,15.24l-9.01,7.56c-9.2,4.42-18.76,5-32.1,1.13l9.01-7.56c13.33,3.86,22.91,3.29,32.1-1.13Z"/>
          </g>
          <g>
            <path class="cls-6" d="M161.05,91.42c-6.64,5.57-16.84,8.12-25.13,8.04-13.52-9.71-32.1-30.08-32.1-45.64v-29.89c13.33,3.87,22.9,3.29,32.1-1.13,9.19,11.11,18.76,18.65,32.09,24.5v29.88c0,6.01-2.77,10.73-6.96,14.24Z"/>
            <path class="cls-6" d="M103.82,23.93l9.01-7.56c13.33,3.86,22.91,3.29,32.1-1.13,9.19,11.11,18.76,18.65,32.1,24.49v29.89c0,6.01-2.78,10.73-6.96,14.23l-9.01,7.57"/>
            <line class="cls-6" x1="135.92" y1="22.8" x2="144.93" y2="15.24"/>
          </g>
        </g>
        <path class="cls-5" d="M143.63,58.97v-5.36c0-4.31-3.46-9.07-7.71-10.62-4.25-1.55-7.71.7-7.71,5v5.36c-1.59-.55-2.87.29-2.87,1.9v14.73c0,1.63,1.31,3.42,2.91,4.01l15.33,5.58c1.61.59,2.91-.26,2.91-1.89v-14.73c0-1.61-1.28-3.39-2.87-3.99ZM136.99,67.51v3.67l-2.15-.79v-3.67c-.88-.73-1.49-1.86-1.49-2.91,0-1.44,1.15-2.18,2.57-1.67,1.42.52,2.57,2.1,2.57,3.54,0,1.05-.61,1.73-1.49,1.82ZM140.68,57.89l-9.52-3.47v-5.36c0-2.66,2.14-4.04,4.76-3.09,2.63.96,4.76,3.9,4.76,6.56v5.36Z"/>
      </g>
    </g>
  </g>
</svg>