<svg xmlns="http://www.w3.org/2000/svg" viewBox="0 0 136.41 200.73"><defs><style>.cls-1{fill:#969a9e;}.cls-2{fill:#fff;}.cls-3{fill:#373a3a;}.cls-4{fill:none;stroke:#373a3a;stroke-linecap:round;stroke-linejoin:round;stroke-width:3px;}.cls-5{fill:#f6d84c;}</style></defs><g id="Layer_2" data-name="Layer 2"><g id="icons_design" data-name="icons design"><g id="tuner"><path class="cls-1" d="M134.91,74V183.74c0,2.53-.83,4.31-2.16,5.07l-17.32,10c1.33-.76,2.17-2.54,2.16-5.07V84a15.76,15.76,0,0,0-2.16-7.58A12,12,0,0,0,111.32,72L7.78,12.26a4,4,0,0,0-4-.37L21,1.93a4,4,0,0,1,4.1.33L128.65,62a12,12,0,0,1,4.1,4.41A15.76,15.76,0,0,1,134.91,74Z"/><path class="cls-2" d="M117.59,193.74c0,2.53-.83,4.31-2.16,5.07a4,4,0,0,1-4.11-.33L7.77,138.7a12.06,12.06,0,0,1-4.1-4.42,15.58,15.58,0,0,1-2.17-7.55V17c0-2.52.85-4.3,2.18-5.07l.08,0a4,4,0,0,1,4,.37L111.32,72a12,12,0,0,1,4.11,4.41A15.76,15.76,0,0,1,117.59,84ZM91.74,117c0-7.35,0-16.45,0-27.69,0-3.33-2-7.2-4.54-8.64s-4.53.08-4.53,3.41v65.34c0,3.32,2,7.19,4.53,8.64s4.53-.1,4.54-3.43ZM64.1,101c0-7.35-.06-16.44-.06-27.69,0-3.33-2-7.2-4.51-8.64S55,64.75,55,68.08v65.33c0,3.33,2,7.2,4.53,8.64S64,142,64,138.63C64,127.38,64.07,108.32,64.1,101ZM36.39,85c0-7.36,0-16.45,0-27.69,0-3.34-2-7.21-4.54-8.64s-4.53.08-4.52,3.4v65.34c0,3.33,2,7.2,4.52,8.64s4.54-.09,4.54-3.42Z"/><path class="cls-3" d="M91.74,89.28V154.6c0,3.33-2,4.87-4.54,3.43s-4.53-5.32-4.53-8.64V84.05c0-3.33,2-4.86,4.53-3.41S91.73,86,91.74,89.28Z"/><path class="cls-3" d="M64,73.3v65.33c0,3.32-2,4.87-4.51,3.42S55,136.74,55,133.41V68.08c0-3.33,2-4.87,4.53-3.42S64,70,64,73.3Z"/><path class="cls-3" d="M36.39,57.33v65.32c0,3.33-2,4.87-4.54,3.42s-4.53-5.31-4.52-8.64V52.09c0-3.32,2-4.85,4.52-3.4S36.39,54,36.39,57.33Z"/><path class="cls-4" d="M3.76,11.89a4,4,0,0,1,4,.37L111.32,72a12,12,0,0,1,4.11,4.41A15.76,15.76,0,0,1,117.59,84V193.74c0,2.53-.84,4.3-2.16,5.07a4,4,0,0,1-4.11-.33L7.77,138.7a12.06,12.06,0,0,1-4.1-4.42,15.58,15.58,0,0,1-2.17-7.55V17c0-2.52.85-4.3,2.18-5.07Z"/><path class="cls-4" d="M36.39,85v37.63c0,3.33-2,4.87-4.54,3.42s-4.53-5.31-4.52-8.64V52.09c0-3.32,2-4.85,4.52-3.4s4.54,5.3,4.54,8.64C36.39,68.57,36.37,77.66,36.39,85Z"/><path class="cls-4" d="M64.1,101c0,7.33-.06,26.39-.06,37.64,0,3.32-2,4.87-4.51,3.42S55,136.74,55,133.41V68.08c0-3.33,2-4.87,4.53-3.42S64,70,64,73.3C64,84.55,64.07,93.64,64.1,101Z"/><path class="cls-4" d="M91.74,117V154.6c0,3.33-2,4.87-4.54,3.43s-4.53-5.32-4.53-8.64V84.05c0-3.33,2-4.86,4.53-3.41s4.53,5.31,4.54,8.64C91.74,100.52,91.72,109.62,91.74,117Z"/><path class="cls-4" d="M3.68,11.93,21,1.93a4,4,0,0,1,4.1.33L128.65,62a12,12,0,0,1,4.1,4.41A15.76,15.76,0,0,1,134.91,74V183.74c0,2.53-.83,4.31-2.16,5.07l-17.32,10"/><path class="cls-5" d="M41.21,106.78c0,3-1.06,5.08-2.76,6l-7.65,4.42c1.62-1,2.61-3.07,2.61-6,0-6-4.17-13.19-9.33-16.16-2.58-1.49-4.91-1.63-6.6-.66l7.8-4.5c1.7-1,4-.83,6.6.65C37,93.59,41.21,100.83,41.21,106.78Z"/><path class="cls-2" d="M33.41,111.28c0,2.9-1,5-2.61,6l-.12.07c-1.68,1-4,.84-6.6-.65-5.15-3-9.33-10.22-9.33-16.17,0-3,1-5.06,2.73-6s4-.83,6.6.66C29.24,98.09,33.41,105.33,33.41,111.28Z"/><path class="cls-4" d="M30.8,117.25c1.62-1,2.61-3.07,2.61-6,0-6-4.17-13.19-9.33-16.16-2.58-1.49-4.92-1.64-6.6-.66s-2.73,3.07-2.73,6c0,6,4.18,13.19,9.33,16.17,2.58,1.49,4.92,1.63,6.6.65"/><path class="cls-4" d="M38.48,112.82h0c1.7-1,2.76-3.06,2.76-6,0-6-4.18-13.19-9.33-16.17C29.3,89.13,27,89,25.28,90l-7.8,4.5"/><line class="cls-4" x1="30.68" y1="117.32" x2="38.45" y2="112.83"/><path class="cls-5" d="M68.94,93.22c0,3-1,5.08-2.76,6l-7.65,4.42c1.62-1,2.61-3.07,2.61-6,0-6-4.17-13.19-9.33-16.17-2.58-1.49-4.91-1.63-6.6-.65L53,76.4c1.69-1,4-.83,6.6.65C64.76,80,68.94,87.27,68.94,93.22Z"/><path class="cls-2" d="M61.14,97.72c0,2.9-1,5-2.61,6l-.12.07c-1.68,1-4,.84-6.6-.65-5.15-3-9.33-10.22-9.33-16.17,0-3,1-5.06,2.73-6s4-.84,6.6.65C57,84.53,61.14,91.77,61.14,97.72Z"/><path class="cls-4" d="M58.53,103.69c1.62-1,2.61-3.07,2.61-6,0-6-4.17-13.19-9.33-16.17-2.58-1.49-4.91-1.63-6.6-.65s-2.73,3.07-2.73,6c0,6,4.18,13.19,9.33,16.17,2.58,1.49,4.92,1.63,6.6.65"/><path class="cls-4" d="M66.21,99.26h0c1.71-1,2.76-3.06,2.76-6,0-6-4.18-13.19-9.33-16.17C57,75.57,54.7,75.42,53,76.4l-7.8,4.5"/><line class="cls-4" x1="58.41" y1="103.76" x2="66.18" y2="99.27"/><path class="cls-5" d="M95.9,118.76c0,3-1,5.07-2.73,6l-7.67,4.43c1.62-1,2.61-3.07,2.61-6,0-6-4.18-13.19-9.33-16.16-2.58-1.49-4.91-1.63-6.6-.66l7.79-4.5,0,0c1.69-1,4-.86,6.62.64C91.73,105.57,95.9,112.81,95.9,118.76Z"/><path class="cls-2" d="M88.11,123.26c0,2.9-1,5-2.61,6l-.12.07c-1.69,1-4,.84-6.6-.65-5.16-3-9.34-10.21-9.34-16.17,0-3,1-5.07,2.74-6s4-.83,6.6.66C83.93,110.07,88.11,117.31,88.11,123.26Z"/><path class="cls-4" d="M85.5,129.23c1.62-1,2.61-3.07,2.61-6,0-6-4.18-13.19-9.33-16.16-2.58-1.49-4.91-1.63-6.6-.66s-2.74,3.06-2.74,6c0,6,4.18,13.19,9.34,16.17,2.58,1.49,4.91,1.63,6.6.65"/><path class="cls-4" d="M93.15,124.82l0,0c1.69-1,2.73-3.06,2.73-6,0-6-4.17-13.19-9.33-16.16C84,101.1,81.64,101,80,102l0,0-7.79,4.5"/><line class="cls-4" x1="85.38" y1="129.3" x2="93.17" y2="124.8"/></g></g></g></svg>