<?xml version="1.0" encoding="UTF-8"?>
<svg id="Layer_2" xmlns="http://www.w3.org/2000/svg" viewBox="0 0 155.58 224.94">
  <defs>
    <style>
      .cls-1 {
        fill: #f6d84c;
      }

      .cls-2 {
        fill: #c2c7cc;
      }

      .cls-3 {
        fill: #969a9e;
      }

      .cls-4 {
        fill: #fff;
      }

      .cls-5 {
        fill: #373a3a;
      }

      .cls-6 {
        fill: none;
        stroke: #373a3a;
        stroke-linecap: round;
        stroke-linejoin: round;
        stroke-width: 3px;
      }
    </style>
  </defs>
  <g id="icons_design">
    <g>
      <g>
        <path class="cls-4" d="M136.91,223.18l-.11.07c-.51.3-1.17.26-1.89-.15L4.38,147.74c-1.59-.93-2.88-3.39-2.88-5.52V13.43c0-1.16.38-1.98,1-2.33l.04-.02c.5-.27,1.14-.23,1.84.17l130.52,75.35c1.6.93,2.89,3.39,2.89,5.52v128.79c0,1.08-.34,1.87-.89,2.26ZM114.02,140.68l-13.49-33.64-13.49,18.06,26.99,15.58ZM90.12,159.41l-13.49-45.92-7.71,17.37-10.32-35.1,13.36,7.71-8.81-21.98-6.28,8.38-6.25-21.29-21.13,47.54,36.58,21.12h.01l-2.92,6.59,26.97,15.56Z"/>
        <polygon class="cls-5" points="100.52 107.04 114.02 140.68 87.03 125.1 100.52 107.04"/>
        <polygon class="cls-1" points="76.63 113.49 90.12 159.41 63.16 143.85 76.63 113.49"/>
        <polygon class="cls-2" points="63.16 81.5 71.97 103.48 58.6 95.77 56.87 89.88 63.16 81.5"/>
        <polygon class="cls-5" points="67.18 124.96 68.92 130.86 66.08 137.26 66.07 137.26 29.49 116.14 34.07 105.83 34.08 105.84 67.18 124.96"/>
        <polygon class="cls-4" points="58.6 95.77 67.18 124.96 34.08 105.84 34.07 105.83 50.62 68.6 58.6 95.77"/>
        <path class="cls-3" d="M2.54,11.08L18.78,1.7c.5-.3,1.16-.26,1.88.15l130.53,75.35c1.59.92,2.88,3.39,2.88,5.51v128.8c0,1.16-.39,1.98-1,2.33l-16.17,9.33c.55-.39.89-1.18.89-2.26V92.12c0-2.13-1.29-4.59-2.89-5.52L4.38,11.25c-.7-.41-1.34-.45-1.84-.17Z"/>
      </g>
      <g>
        <path class="cls-6" d="M2.54,11.08c.5-.27,1.14-.23,1.84.17l130.52,75.35c1.6.93,2.89,3.39,2.89,5.52v128.79c0,1.08-.34,1.87-.89,2.26"/>
        <path class="cls-6" d="M136.8,223.25c-.51.3-1.17.26-1.89-.15L4.38,147.74c-1.59-.93-2.88-3.39-2.88-5.52V13.43c0-1.16.38-1.98,1-2.33"/>
        <path class="cls-6" d="M2.5,11.1L18.78,1.7c.5-.3,1.16-.26,1.88.15l130.53,75.35c1.59.92,2.88,3.39,2.88,5.51v128.8c0,1.16-.39,1.98-1,2.33l-16.28,9.4"/>
        <polyline class="cls-6" points="66.07 137.26 29.49 116.14 50.62 68.6 68.92 130.86"/>
        <polygon class="cls-6" points="68.92 130.86 76.63 113.49 90.12 159.41 63.16 143.85 68.92 130.86"/>
        <polygon class="cls-6" points="87.03 125.1 100.52 107.04 114.02 140.68 87.03 125.1"/>
        <polyline class="cls-6" points="56.87 89.88 63.16 81.5 71.97 103.48 58.6 95.77"/>
        <line class="cls-6" x1="34.08" y1="105.84" x2="67.18" y2="124.96"/>
        <line class="cls-6" x1="15.33" y1="38.06" x2="15.33" y2="35.95"/>
        <line class="cls-6" x1="20.78" y1="41.2" x2="20.78" y2="39.09"/>
        <line class="cls-6" x1="26.22" y1="44.35" x2="26.22" y2="42.23"/>
      </g>
    </g>
  </g>
</svg>